REM DIRINDEX 1\2\4,1\2\5,1\2\6,1\3\7,1\3\8,1\3\9,1\3\10
REM DIRNAME folder01,folder02,folder03,folder04,folder05,folder06,folder07,folder08,folder09,folder10
TITLE ""
FILE "b_205.mp3" MP3
  TRACK 01 AUDIO
    TITLE "0:"
    INDEX 01 00:00:00
  TRACK 02 AUDIO
    TITLE "7:cjc057_10345"
    INDEX 01 00:00:13
  TRACK 03 AUDIO
    TITLE "0:"
    INDEX 01 00:01:30
  TRACK 04 AUDIO
    TITLE "8:cjc057_10346"
    INDEX 01 00:01:60
  TRACK 05 AUDIO
    TITLE "0:"
    INDEX 01 00:03:12
  TRACK 06 AUDIO
    TITLE "9:cjc057_10347"
    INDEX 01 00:03:53
  TRACK 07 AUDIO
    TITLE "0:"
    INDEX 01 00:07:66
  TRACK 08 AUDIO
    TITLE "7:cjc057_10348"
    INDEX 01 00:08:70
  TRACK 09 AUDIO
    TITLE "0:"
    INDEX 01 00:10:16
  TRACK 10 AUDIO
    TITLE "8:cjc057_10349"
    INDEX 01 00:10:41
  TRACK 11 AUDIO
    TITLE "0:"
    INDEX 01 00:11:70
  TRACK 12 AUDIO
    TITLE "9:cjc057_10350"
    INDEX 01 00:12:34
  TRACK 13 AUDIO
    TITLE "0:"
    INDEX 01 00:16:10
  TRACK 14 AUDIO
    TITLE "7:cjc057_10351"
    INDEX 01 00:17:10
  TRACK 15 AUDIO
    TITLE "0:"
    INDEX 01 00:18:52
  TRACK 16 AUDIO
    TITLE "8:cjc057_10352"
    INDEX 01 00:19:07
  TRACK 17 AUDIO
    TITLE "0:"
    INDEX 01 00:21:39
  TRACK 18 AUDIO
    TITLE "9:cjc057_10353"
    INDEX 01 00:22:05
  TRACK 19 AUDIO
    TITLE "0:"
    INDEX 01 00:25:07
  TRACK 20 AUDIO
    TITLE "7:cjc057_10354"
    INDEX 01 00:26:13
  TRACK 21 AUDIO
    TITLE "0:"
    INDEX 01 00:27:39
  TRACK 22 AUDIO
    TITLE "8:cjc057_10355"
    INDEX 01 00:27:69
  TRACK 23 AUDIO
    TITLE "0:"
    INDEX 01 00:30:48
  TRACK 24 AUDIO
    TITLE "9:cjc057_10356"
    INDEX 01 00:31:12
  TRACK 25 AUDIO
    TITLE "0:"
    INDEX 01 00:34:10
  TRACK 26 AUDIO
    TITLE "7:cjc057_10357"
    INDEX 01 00:35:15
  TRACK 27 AUDIO
    TITLE "0:"
    INDEX 01 00:36:25
  TRACK 28 AUDIO
    TITLE "8:cjc057_10358"
    INDEX 01 00:36:54
  TRACK 29 AUDIO
    TITLE "0:"
    INDEX 01 00:41:63
  TRACK 30 AUDIO
    TITLE "9:cjc057_10359"
    INDEX 01 00:42:31
  TRACK 31 AUDIO
    TITLE "0:"
    INDEX 01 00:46:56
  TRACK 32 AUDIO
    TITLE "7:cjc057_10360"
    INDEX 01 00:47:58
  TRACK 33 AUDIO
    TITLE "0:"
    INDEX 01 00:49:20
  TRACK 34 AUDIO
    TITLE "8:cjc057_10361"
    INDEX 01 00:49:47
  TRACK 35 AUDIO
    TITLE "0:"
    INDEX 01 00:51:01
  TRACK 36 AUDIO
    TITLE "9:cjc057_10362"
    INDEX 01 00:51:44
  TRACK 37 AUDIO
    TITLE "0:"
    INDEX 01 00:56:00
  TRACK 38 AUDIO
    TITLE "7:cjc057_10363"
    INDEX 01 00:57:03
  TRACK 39 AUDIO
    TITLE "0:"
    INDEX 01 00:58:36
  TRACK 40 AUDIO
    TITLE "8:cjc057_10364"
    INDEX 01 00:58:66
  TRACK 41 AUDIO
    TITLE "0:"
    INDEX 01 01:00:33
  TRACK 42 AUDIO
    TITLE "9:cjc057_10365"
    INDEX 01 01:00:70
  TRACK 43 AUDIO
    TITLE "0:"
    INDEX 01 01:04:39
  TRACK 44 AUDIO
    TITLE "7:cjc057_10366"
    INDEX 01 01:05:42
  TRACK 45 AUDIO
    TITLE "0:"
    INDEX 01 01:06:63
  TRACK 46 AUDIO
    TITLE "8:cjc057_10367"
    INDEX 01 01:07:15
  TRACK 47 AUDIO
    TITLE "0:"
    INDEX 01 01:08:58
  TRACK 48 AUDIO
    TITLE "9:cjc057_10368"
    INDEX 01 01:09:26
  TRACK 49 AUDIO
    TITLE "0:"
    INDEX 01 01:12:48
  TRACK 50 AUDIO
    TITLE "7:cjc057_10369"
    INDEX 01 01:13:55
  TRACK 51 AUDIO
    TITLE "0:"
    INDEX 01 01:15:09
  TRACK 52 AUDIO
    TITLE "8:cjc057_10370"
    INDEX 01 01:15:39
  TRACK 53 AUDIO
    TITLE "0:"
    INDEX 01 01:17:57
  TRACK 54 AUDIO
    TITLE "9:cjc057_10371"
    INDEX 01 01:18:23
  TRACK 55 AUDIO
    TITLE "0:"
    INDEX 01 01:21:12
  TRACK 56 AUDIO
    TITLE "7:cjc057_10372"
    INDEX 01 01:22:11
  TRACK 57 AUDIO
    TITLE "0:"
    INDEX 01 01:23:28
  TRACK 58 AUDIO
    TITLE "8:cjc057_10373"
    INDEX 01 01:23:58
  TRACK 59 AUDIO
    TITLE "0:"
    INDEX 01 01:26:42
  TRACK 60 AUDIO
    TITLE "9:cjc057_10374"
    INDEX 01 01:27:06
  TRACK 61 AUDIO
    TITLE "0:"
    INDEX 01 01:31:12
  TRACK 62 AUDIO
    TITLE "7:cjc057_10375"
    INDEX 01 01:32:17
  TRACK 63 AUDIO
    TITLE "0:"
    INDEX 01 01:33:40
  TRACK 64 AUDIO
    TITLE "8:cjc057_10376"
    INDEX 01 01:33:68
  TRACK 65 AUDIO
    TITLE "0:"
    INDEX 01 01:36:09
  TRACK 66 AUDIO
    TITLE "9:cjc057_10377"
    INDEX 01 01:36:50
  TRACK 67 AUDIO
    TITLE "0:"
    INDEX 01 01:40:42
  TRACK 68 AUDIO
    TITLE "7:cjc057_10378"
    INDEX 01 01:41:46
  TRACK 69 AUDIO
    TITLE "0:"
    INDEX 01 01:43:00
  TRACK 70 AUDIO
    TITLE "8:cjc057_10379"
    INDEX 01 01:43:29
  TRACK 71 AUDIO
    TITLE "0:"
    INDEX 01 01:45:61
  TRACK 72 AUDIO
    TITLE "9:cjc057_10380"
    INDEX 01 01:46:29
  TRACK 73 AUDIO
    TITLE "0:"
    INDEX 01 01:51:03
